{"asset":{"version":"2.0","generator":"THREE.GLTFExporter"},"scenes":[{"nodes":[0],"name":"AuxScene"}],"scene":0,"nodes":[{"mesh":0}],"bufferViews":[{"buffer":0,"byteOffset":0,"byteLength":173628,"target":34962,"byteStride":12},{"buffer":0,"byteOffset":173628,"byteLength":173628,"target":34962,"byteStride":12}],"buffers":[{"byteLength":347256,"uri":"data:application/octet-stream;base64,"}],"accessors":[{"bufferView":0,"componentType":5126,"count":14469,"max":[74.40000915527344,70.70186614990234,44],"min":[-74.4000015258789,-17.09813690185547,-270.3999938964844],"type":"VEC3"},{"bufferView":1,"componentType":5126,"count":14469,"max":[0.9407181739807129,1,0.5547070503234863],"min":[-0.9407204389572144,0.03988748788833618,-0.5853704810142517],"type":"VEC3"}],"materials":[{"pbrMetallicRoughness":{"baseColorFactor":[0.5019607843137255,0.5019607843137255,0.5019607843137255,1],"metallicFactor":0,"roughnessFactor":1}}],"meshes":[{"primitives":[{"mode":4,"attributes":{"POSITION":0,"NORMAL":1},"material":0}]}]}